<mxfile host="app.diagrams.net" agent="Mozilla/5.0 (Windows NT 10.0; Win64; x64) AppleWebKit/537.36 (KHTML, like Gecko) Chrome/130.0.0.0 Safari/537.36 Edg/130.0.0.0" version="24.8.0">
  <diagram name="Page-1" id="f7qXiUDUXM9vJUY4WpnZ">
    <mxGraphModel dx="1434" dy="784" grid="1" gridSize="10" guides="1" tooltips="1" connect="1" arrows="1" fold="1" page="1" pageScale="1" pageWidth="850" pageHeight="1100" math="0" shadow="0">
      <root>
        <mxCell id="0" />
        <mxCell id="1" parent="0" />
        <mxCell id="9g_AEu41fhtfM2SIhQAU-1" value="ew conv py" style="rounded=0;whiteSpace=wrap;html=1;" parent="1" vertex="1">
          <mxGeometry x="170" y="220" width="120" height="60" as="geometry" />
        </mxCell>
        <mxCell id="9g_AEu41fhtfM2SIhQAU-2" value="import yfinance py" style="rounded=0;whiteSpace=wrap;html=1;" parent="1" vertex="1">
          <mxGeometry x="170" y="320" width="120" height="60" as="geometry" />
        </mxCell>
        <mxCell id="9g_AEu41fhtfM2SIhQAU-3" value="testing.py&amp;nbsp;&lt;div&gt;(MAIN FILE)&lt;/div&gt;" style="rounded=0;whiteSpace=wrap;html=1;" parent="1" vertex="1">
          <mxGeometry x="550" y="260" width="120" height="60" as="geometry" />
        </mxCell>
        <mxCell id="9g_AEu41fhtfM2SIhQAU-4" value="" style="endArrow=classic;html=1;rounded=0;" parent="1" edge="1">
          <mxGeometry width="50" height="50" relative="1" as="geometry">
            <mxPoint x="290" y="250" as="sourcePoint" />
            <mxPoint x="360" y="250" as="targetPoint" />
          </mxGeometry>
        </mxCell>
        <mxCell id="9g_AEu41fhtfM2SIhQAU-5" value="" style="endArrow=classic;html=1;rounded=0;" parent="1" edge="1">
          <mxGeometry width="50" height="50" relative="1" as="geometry">
            <mxPoint x="290" y="349.5" as="sourcePoint" />
            <mxPoint x="360" y="349.5" as="targetPoint" />
          </mxGeometry>
        </mxCell>
        <mxCell id="9g_AEu41fhtfM2SIhQAU-20" style="edgeStyle=orthogonalEdgeStyle;rounded=0;orthogonalLoop=1;jettySize=auto;html=1;exitX=1;exitY=0.5;exitDx=0;exitDy=0;exitPerimeter=0;entryX=0;entryY=0.5;entryDx=0;entryDy=0;" parent="1" source="9g_AEu41fhtfM2SIhQAU-7" target="9g_AEu41fhtfM2SIhQAU-3" edge="1">
          <mxGeometry relative="1" as="geometry">
            <mxPoint x="490" y="250" as="targetPoint" />
          </mxGeometry>
        </mxCell>
        <mxCell id="d_13KXShtALWo8nMmFfi-22" value="Exclude Buy Price" style="edgeLabel;html=1;align=center;verticalAlign=middle;resizable=0;points=[];" vertex="1" connectable="0" parent="9g_AEu41fhtfM2SIhQAU-20">
          <mxGeometry x="0.0923" relative="1" as="geometry">
            <mxPoint x="-5" as="offset" />
          </mxGeometry>
        </mxCell>
        <mxCell id="9g_AEu41fhtfM2SIhQAU-7" value="postgresql ew conv" style="shape=cylinder3;whiteSpace=wrap;html=1;boundedLbl=1;backgroundOutline=1;size=15;" parent="1" vertex="1">
          <mxGeometry x="360" y="210" width="60" height="80" as="geometry" />
        </mxCell>
        <mxCell id="9g_AEu41fhtfM2SIhQAU-21" style="edgeStyle=orthogonalEdgeStyle;rounded=0;orthogonalLoop=1;jettySize=auto;html=1;exitX=1;exitY=0.5;exitDx=0;exitDy=0;exitPerimeter=0;entryX=0;entryY=0.75;entryDx=0;entryDy=0;" parent="1" source="9g_AEu41fhtfM2SIhQAU-8" edge="1" target="9g_AEu41fhtfM2SIhQAU-3">
          <mxGeometry relative="1" as="geometry">
            <mxPoint x="490" y="350" as="targetPoint" />
          </mxGeometry>
        </mxCell>
        <mxCell id="9g_AEu41fhtfM2SIhQAU-8" value="postgresql yfinance" style="shape=cylinder3;whiteSpace=wrap;html=1;boundedLbl=1;backgroundOutline=1;size=15;" parent="1" vertex="1">
          <mxGeometry x="360" y="310" width="60" height="80" as="geometry" />
        </mxCell>
        <mxCell id="9g_AEu41fhtfM2SIhQAU-9" value="ew conv source file" style="whiteSpace=wrap;html=1;aspect=fixed;" parent="1" vertex="1">
          <mxGeometry x="20" y="210" width="80" height="80" as="geometry" />
        </mxCell>
        <mxCell id="9g_AEu41fhtfM2SIhQAU-11" value="" style="endArrow=classic;html=1;rounded=0;entryX=0;entryY=0.5;entryDx=0;entryDy=0;" parent="1" target="9g_AEu41fhtfM2SIhQAU-1" edge="1">
          <mxGeometry width="50" height="50" relative="1" as="geometry">
            <mxPoint x="90" y="250" as="sourcePoint" />
            <mxPoint x="160" y="250" as="targetPoint" />
          </mxGeometry>
        </mxCell>
        <mxCell id="Gc0xQWbeNlLE-9sP4hYX-16" style="edgeStyle=orthogonalEdgeStyle;rounded=0;orthogonalLoop=1;jettySize=auto;html=1;entryX=0.5;entryY=0;entryDx=0;entryDy=0;exitX=0.5;exitY=0;exitDx=0;exitDy=0;" parent="1" source="9g_AEu41fhtfM2SIhQAU-25" target="Gc0xQWbeNlLE-9sP4hYX-17" edge="1">
          <mxGeometry relative="1" as="geometry">
            <mxPoint x="260" y="80" as="targetPoint" />
          </mxGeometry>
        </mxCell>
        <mxCell id="9g_AEu41fhtfM2SIhQAU-25" value="daily ticker list source files" style="whiteSpace=wrap;html=1;aspect=fixed;" parent="1" vertex="1">
          <mxGeometry x="20" y="70" width="80" height="80" as="geometry" />
        </mxCell>
        <mxCell id="9g_AEu41fhtfM2SIhQAU-28" value="postgresql Trade Journal&amp;nbsp;" style="shape=cylinder3;whiteSpace=wrap;html=1;boundedLbl=1;backgroundOutline=1;size=15;" parent="1" vertex="1">
          <mxGeometry x="520" y="500" width="120" height="130" as="geometry" />
        </mxCell>
        <mxCell id="9g_AEu41fhtfM2SIhQAU-29" value="Main functions" style="swimlane;fontStyle=0;childLayout=stackLayout;horizontal=1;startSize=30;horizontalStack=0;resizeParent=1;resizeParentMax=0;resizeLast=0;collapsible=1;marginBottom=0;whiteSpace=wrap;html=1;" parent="1" vertex="1">
          <mxGeometry x="650" y="350" width="170" height="150" as="geometry" />
        </mxCell>
        <mxCell id="9g_AEu41fhtfM2SIhQAU-30" value="Fetch ew conv, yfinance, and merged tickers (Close)" style="text;strokeColor=none;fillColor=none;align=left;verticalAlign=middle;spacingLeft=4;spacingRight=4;overflow=hidden;points=[[0,0.5],[1,0.5]];portConstraint=eastwest;rotatable=0;whiteSpace=wrap;html=1;" parent="9g_AEu41fhtfM2SIhQAU-29" vertex="1">
          <mxGeometry y="30" width="170" height="30" as="geometry" />
        </mxCell>
        <mxCell id="9g_AEu41fhtfM2SIhQAU-31" value="Merge based on current date (and last date for ew conv for the specific ticker" style="text;strokeColor=none;fillColor=none;align=left;verticalAlign=middle;spacingLeft=4;spacingRight=4;overflow=hidden;points=[[0,0.5],[1,0.5]];portConstraint=eastwest;rotatable=0;whiteSpace=wrap;html=1;" parent="9g_AEu41fhtfM2SIhQAU-29" vertex="1">
          <mxGeometry y="60" width="170" height="60" as="geometry" />
        </mxCell>
        <mxCell id="9g_AEu41fhtfM2SIhQAU-32" value="Add conditional fields&amp;nbsp;" style="text;strokeColor=none;fillColor=none;align=left;verticalAlign=middle;spacingLeft=4;spacingRight=4;overflow=hidden;points=[[0,0.5],[1,0.5]];portConstraint=eastwest;rotatable=0;whiteSpace=wrap;html=1;" parent="9g_AEu41fhtfM2SIhQAU-29" vertex="1">
          <mxGeometry y="120" width="170" height="30" as="geometry" />
        </mxCell>
        <mxCell id="9g_AEu41fhtfM2SIhQAU-33" style="edgeStyle=orthogonalEdgeStyle;rounded=0;orthogonalLoop=1;jettySize=auto;html=1;exitX=0.25;exitY=1;exitDx=0;exitDy=0;entryX=0.5;entryY=0;entryDx=0;entryDy=0;entryPerimeter=0;" parent="1" source="9g_AEu41fhtfM2SIhQAU-3" target="9g_AEu41fhtfM2SIhQAU-28" edge="1">
          <mxGeometry relative="1" as="geometry" />
        </mxCell>
        <mxCell id="d_13KXShtALWo8nMmFfi-17" value="Desired DB" style="edgeLabel;html=1;align=center;verticalAlign=middle;resizable=0;points=[];" vertex="1" connectable="0" parent="9g_AEu41fhtfM2SIhQAU-33">
          <mxGeometry x="0.6229" y="1" relative="1" as="geometry">
            <mxPoint as="offset" />
          </mxGeometry>
        </mxCell>
        <mxCell id="Gc0xQWbeNlLE-9sP4hYX-2" value="Closed Archives" style="shape=cylinder3;whiteSpace=wrap;html=1;boundedLbl=1;backgroundOutline=1;size=15;" parent="1" vertex="1">
          <mxGeometry x="360" y="525" width="60" height="80" as="geometry" />
        </mxCell>
        <mxCell id="d_13KXShtALWo8nMmFfi-7" style="edgeStyle=orthogonalEdgeStyle;rounded=0;orthogonalLoop=1;jettySize=auto;html=1;entryX=0.833;entryY=0;entryDx=0;entryDy=0;entryPerimeter=0;exitX=1;exitY=0;exitDx=0;exitDy=75;exitPerimeter=0;" edge="1" parent="1" source="Gc0xQWbeNlLE-9sP4hYX-4" target="9g_AEu41fhtfM2SIhQAU-3">
          <mxGeometry relative="1" as="geometry" />
        </mxCell>
        <mxCell id="d_13KXShtALWo8nMmFfi-19" value="Take only Close as Buy Price" style="edgeLabel;html=1;align=center;verticalAlign=middle;resizable=0;points=[];" vertex="1" connectable="0" parent="d_13KXShtALWo8nMmFfi-7">
          <mxGeometry x="0.2784" y="1" relative="1" as="geometry">
            <mxPoint as="offset" />
          </mxGeometry>
        </mxCell>
        <mxCell id="Gc0xQWbeNlLE-9sP4hYX-4" value="postgresql&lt;div&gt;merged_tickers Close (Buy Price)&lt;div&gt;&lt;br&gt;&lt;/div&gt;&lt;/div&gt;" style="shape=cylinder3;whiteSpace=wrap;html=1;boundedLbl=1;backgroundOutline=1;size=15;" parent="1" vertex="1">
          <mxGeometry x="460" y="30" width="100" height="110" as="geometry" />
        </mxCell>
        <mxCell id="Gc0xQWbeNlLE-9sP4hYX-10" style="edgeStyle=orthogonalEdgeStyle;rounded=0;orthogonalLoop=1;jettySize=auto;html=1;entryX=1;entryY=0.5;entryDx=0;entryDy=0;entryPerimeter=0;" parent="1" source="9g_AEu41fhtfM2SIhQAU-28" target="Gc0xQWbeNlLE-9sP4hYX-2" edge="1">
          <mxGeometry relative="1" as="geometry" />
        </mxCell>
        <mxCell id="d_13KXShtALWo8nMmFfi-16" value="Closed Records" style="edgeLabel;html=1;align=center;verticalAlign=middle;resizable=0;points=[];" vertex="1" connectable="0" parent="Gc0xQWbeNlLE-9sP4hYX-10">
          <mxGeometry x="0.02" y="2" relative="1" as="geometry">
            <mxPoint as="offset" />
          </mxGeometry>
        </mxCell>
        <mxCell id="Gc0xQWbeNlLE-9sP4hYX-17" value="data cleaning and analysis to csv.&lt;span style=&quot;background-color: initial;&quot;&gt;py&lt;/span&gt;" style="rounded=0;whiteSpace=wrap;html=1;" parent="1" vertex="1">
          <mxGeometry x="190" y="80" width="120" height="60" as="geometry" />
        </mxCell>
        <mxCell id="Gc0xQWbeNlLE-9sP4hYX-19" value="" style="edgeStyle=orthogonalEdgeStyle;rounded=0;orthogonalLoop=1;jettySize=auto;html=1;" parent="1" source="Gc0xQWbeNlLE-9sP4hYX-18" target="9g_AEu41fhtfM2SIhQAU-2" edge="1">
          <mxGeometry relative="1" as="geometry" />
        </mxCell>
        <mxCell id="Gc0xQWbeNlLE-9sP4hYX-18" value="download folder" style="whiteSpace=wrap;html=1;aspect=fixed;" parent="1" vertex="1">
          <mxGeometry x="20" y="310" width="80" height="80" as="geometry" />
        </mxCell>
        <mxCell id="d_13KXShtALWo8nMmFfi-5" style="edgeStyle=orthogonalEdgeStyle;rounded=0;orthogonalLoop=1;jettySize=auto;html=1;exitX=0.5;exitY=1;exitDx=0;exitDy=0;entryX=0.25;entryY=0;entryDx=0;entryDy=0;" edge="1" parent="1" source="9g_AEu41fhtfM2SIhQAU-25" target="9g_AEu41fhtfM2SIhQAU-3">
          <mxGeometry relative="1" as="geometry">
            <mxPoint x="680" y="190" as="targetPoint" />
          </mxGeometry>
        </mxCell>
        <mxCell id="d_13KXShtALWo8nMmFfi-20" value="Take everything except Buy Price" style="edgeLabel;html=1;align=center;verticalAlign=middle;resizable=0;points=[];" vertex="1" connectable="0" parent="d_13KXShtALWo8nMmFfi-5">
          <mxGeometry x="-0.0008" relative="1" as="geometry">
            <mxPoint as="offset" />
          </mxGeometry>
        </mxCell>
        <mxCell id="d_13KXShtALWo8nMmFfi-10" style="edgeStyle=orthogonalEdgeStyle;rounded=0;orthogonalLoop=1;jettySize=auto;html=1;exitX=1;exitY=0.25;exitDx=0;exitDy=0;entryX=0.01;entryY=0.591;entryDx=0;entryDy=0;entryPerimeter=0;" edge="1" parent="1" source="Gc0xQWbeNlLE-9sP4hYX-17" target="Gc0xQWbeNlLE-9sP4hYX-4">
          <mxGeometry relative="1" as="geometry" />
        </mxCell>
        <mxCell id="d_13KXShtALWo8nMmFfi-18" value="DB Containing ALL" style="edgeLabel;html=1;align=center;verticalAlign=middle;resizable=0;points=[];" vertex="1" connectable="0" parent="d_13KXShtALWo8nMmFfi-10">
          <mxGeometry x="-0.0596" y="-1" relative="1" as="geometry">
            <mxPoint as="offset" />
          </mxGeometry>
        </mxCell>
      </root>
    </mxGraphModel>
  </diagram>
</mxfile>
